# xmcd CD database file
# Copyright (C) 1993-1996 Ti Kan
#
# Track frame offsets:
#	150
#	17252
#	35895
#	49300
#	77215
#	93580
#	110747
#	126937
#	145007
#	160387
#	176980
#	200970
#	220815
#	236775
#
# Disc length: 3355 seconds
#
# Revision: 2
# Processed by: cddbd v1.4b41PL1 Copyright (c) Steve Scherf et al.
# Submitted via: xmcd 2.1
#
DISCID=d60d190e
DTITLE=Mark Hummel - Heart of Chicago
DYEAR=1900
DGENRE=
TTITLE0=My Kind of Baby
TTITLE1=Rockin' at the Riverside
TTITLE2=Lost a Good Man
TTITLE3=Rollin' from Side to Side
TTITLE4=Tryin' to Make a Living
TTITLE5=Love Shock
TTITLE6=I Want Your Love
TTITLE7=Peaches Tree
TTITLE8=Step Back Baby
TTITLE9=But I Forgive You
TTITLE10=Out on a Limb
TTITLE11=Ready for Eddie
TTITLE12=Drinkin' Again
TTITLE13=Living with the Blues
EXTD=
EXTT0=
EXTT1=
EXTT2=
EXTT3=
EXTT4=
EXTT5=
EXTT6=
EXTT7=
EXTT8=
EXTT9=
EXTT10=
EXTT11=
EXTT12=
EXTT13=
PLAYORDER=
